<?xml version="1.0" encoding="UTF-8" standalone="no"?>
<!DOCTYPE svg PUBLIC "-//W3C//DTD SVG 1.1//EN"
 "http://www.w3.org/Graphics/SVG/1.1/DTD/svg11.dtd">
<!-- Generated by graphviz version 7.1.0 (0)
 -->
<!-- Pages: 1 -->
<svg width="188pt" height="44pt"
 viewBox="0.00 0.00 188.00 44.00" xmlns="http://www.w3.org/2000/svg" xmlns:xlink="http://www.w3.org/1999/xlink">
<g id="graph0" class="graph" transform="scale(1 1) rotate(0) translate(4 40)">
<polygon fill="white" stroke="none" points="-4,4 -4,-40 184,-40 184,4 -4,4"/>
<!-- a -->
<g id="node1" class="node">
<title>a</title>
<polygon fill="none" stroke="black" points="36,-36 0,-36 0,0 36,0 36,-36"/>
<text text-anchor="middle" x="18" y="-14.3" font-family="Times,serif" font-size="14.00">L</text>
</g>
<!-- b -->
<g id="node2" class="node">
<title>b</title>
<polygon fill="none" stroke="black" points="108,-36 72,-36 72,0 108,0 108,-36"/>
<text text-anchor="middle" x="90" y="-14.3" font-family="Times,serif" font-size="14.00">T</text>
</g>
<!-- a&#45;&gt;b -->
<g id="edge1" class="edge">
<title>a&#45;&gt;b</title>
<path fill="none" stroke="black" d="M36.3,-18C43.59,-18 52.27,-18 60.46,-18"/>
<polygon fill="black" stroke="black" points="60.38,-21.5 70.38,-18 60.38,-14.5 60.38,-21.5"/>
</g>
<!-- c -->
<g id="node3" class="node">
<title>c</title>
<polygon fill="none" stroke="black" points="180,-36 144,-36 144,0 180,0 180,-36"/>
<text text-anchor="middle" x="162" y="-14.3" font-family="Times,serif" font-size="14.00">L</text>
</g>
<!-- b&#45;&gt;c -->
<g id="edge2" class="edge">
<title>b&#45;&gt;c</title>
<path fill="none" stroke="black" d="M108.3,-18C115.59,-18 124.27,-18 132.46,-18"/>
<polygon fill="black" stroke="black" points="132.38,-21.5 142.38,-18 132.38,-14.5 132.38,-21.5"/>
</g>
</g>
</svg>
